<?xml version="1.0" encoding="UTF-8" standalone="no"?>
<!-- Created with Inkscape (http://www.inkscape.org/) -->

<svg
   width="140.15788mm"
   height="141.29297mm"
   viewBox="0 0 140.15788 141.29297"
   version="1.1"
   id="svg5"
   xml:space="preserve"
   xmlns="http://www.w3.org/2000/svg"
   xmlns:svg="http://www.w3.org/2000/svg"><defs
     id="defs2" /><g
     id="layer1"
     transform="translate(-1.195707,-155.35577)"><g
       id="g287"
       transform="translate(-2.8387093,2.1290365)"><path
         style="fill:#4385f2;stroke-width:0.282222"
         d="M 69.714229,294.38358 C 13.217586,290.92915 -16.067751,223.57474 19.650376,179.23992 51.564454,139.62684 113.74363,146.36339 136.5855,191.90878 160.94625,240.48273 123.62162,297.67969 69.714229,294.38358 Z M 85.09534,288.20359 C 136.51049,278.53395 156.631,215.71699 120.3192,178.23345 82.428089,139.11964 16.231095,161.84876 9.8786876,216.15384 c -5.04259,43.1078 33.3846354,79.91709 75.2166524,72.04975 z m 20.03778,-30.40345 c -12.256609,-9.50529 -11.762136,-9.0115 -10.145672,-10.13171 2.79354,-1.93592 5.888162,-6.04899 7.294022,-9.69451 1.63523,-4.24029 2.88593,-3.82181 -11.90494,-3.98333 -11.074168,-0.12094 -12.960386,-0.20165 -13.189567,-0.56445 -0.41693,-0.66 -0.35803,-17.86737 0.0626,-18.288 0.503146,-0.50314 45.190747,-0.48931 45.596667,0.0141 1.09665,1.36008 1.44507,13.05391 0.53606,17.99167 -2.06182,11.19987 -5.92504,19.20646 -12.56203,26.035 -1.9037,1.95865 -1.14719,2.14205 -5.68714,-1.37878 z"
         id="path295" /><path
         style="fill:#f8b907;stroke-width:0.282222"
         d="m 32.12423,244.78559 c -0.175616,-0.42687 -0.717172,-1.72406 -1.203458,-2.88266 -3.939088,-9.38511 -4.434842,-21.72319 -1.305552,-32.49199 0.84809,-2.91852 2.688867,-7.36588 3.002162,-7.25329 0.126927,0.0456 3.859922,2.81344 8.295546,6.15072 9.138835,6.87588 8.254757,5.68701 7.345432,9.87777 -0.62512,2.88096 -0.609451,8.4736 0.03202,11.43 0.822478,3.7906 1.515838,2.88692 -7.50393,9.78003 -9.064396,6.92721 -8.240456,6.41457 -8.662223,5.38942 z"
         id="path293" /><path
         style="fill:#e74335;stroke-width:0.282222"
         d="m 40.739274,208.09125 c -9.009755,-6.8297 -8.90319,-6.43999 -3.683364,-13.47066 16.538411,-22.27588 47.220046,-26.73389 69.55887,-10.10684 1.3582,1.01092 2.46945,1.98746 2.46945,2.17009 0,0.65027 -13.760353,14.09122 -14.238311,13.90781 -0.246662,-0.0947 -1.1762,-0.66574 -2.06564,-1.26907 -14.663417,-9.9466 -35.738749,-3.71322 -42.697742,12.62857 -1.185605,2.78415 0.148844,3.33544 -9.343263,-3.8599 z"
         id="path291" /><path
         style="fill:#34a752;stroke-width:0.282222"
         d="m 70.419785,272.91177 c -12.847531,-1.65371 -25.401548,-9.03862 -33.303702,-19.59094 -1.914423,-2.55647 -4.638988,-7.46895 -4.314878,-7.77987 6.659078,-6.38807 16.333141,-12.19686 17.156925,-10.30188 6.829182,15.70949 23.776487,21.9416 40.576456,14.92138 2.029702,-0.84815 3.155473,-1.18282 3.386666,-1.0068 0.190469,0.14502 1.616309,1.27846 3.168532,2.51875 1.552222,1.24028 4.790726,3.75314 7.196666,5.58412 2.40594,1.83099 4.47757,3.42366 4.60361,3.53928 0.57509,0.52754 -6.20726,5.46146 -10.389165,7.55777 -7.607825,3.81364 -19.220764,5.69868 -28.08111,4.55819 z"
         id="path289" /></g></g></svg>
