<?xml version="1.0" encoding="UTF-8" standalone="no"?>
<!-- Created with Inkscape (http://www.inkscape.org/) -->

<svg
   width="135.46667mm"
   height="135.46664mm"
   viewBox="0 0 135.46667 135.46664"
   version="1.1"
   id="svg5"
   xml:space="preserve"
   xmlns="http://www.w3.org/2000/svg"
   xmlns:svg="http://www.w3.org/2000/svg"><defs
     id="defs2" /><g
     id="layer1"
     transform="translate(0.3139971,-161.49249)"><path
       style="fill:#000000;stroke-width:0.264583"
       d="m -0.3139751,258.32997 v -38.62916 h 7.9375 7.9374991 v 38.62916 38.62917 h -7.9374991 -7.9375 z m 23.8124991,34.66042 v -3.96875 h 9.524999 9.525 v -3.70417 -3.70416 h -5.55625 -5.55625 v -3.96875 -3.96875 h 35.983333 35.983334 v 3.96875 3.96875 h -5.556247 -5.55625 v 3.70416 3.70417 h 9.524997 9.525 v 3.96875 3.96875 H 67.419356 23.498524 Z m 39.952082,-7.67292 v -3.70416 h -6.482292 -6.482292 v 3.70416 3.70417 h 6.482292 6.482292 z m 20.902077,0 v -3.70416 h -6.482287 -6.48229 v 3.70416 3.70417 h 6.48229 6.482287 z m 34.924997,-26.9875 v -38.62916 h 7.9375 7.9375 v 38.62916 38.62917 h -7.9375 -7.9375 z m -66.603241,6.73632 c -3.377089,-0.90955 -5.859788,-3.6991 -6.327195,-7.10922 l -0.166482,-1.2146 h 2.648725 2.648723 l 0.162184,0.81092 c 0.217345,1.08673 1.464585,2.28543 2.599505,2.49834 3.237066,0.60727 5.196265,-3.38111 2.758371,-5.61527 -0.521526,-0.47794 -1.188101,-0.86898 -1.481278,-0.86898 -0.498263,0 -0.533053,-0.17005 -0.533053,-2.6057 v -2.60569 l 1.046438,-0.41106 c 1.44169,-0.56631 2.195507,-1.8114 2.036841,-3.36429 -0.262498,-2.5691 -3.263368,-3.84697 -5.202422,-2.21536 -0.460256,0.38728 -0.938493,0.97154 -1.062749,1.29836 -0.20215,0.53169 -0.331997,0.57138 -1.233993,0.37723 -0.55444,-0.11934 -1.692682,-0.35486 -2.529427,-0.52337 -0.836745,-0.16851 -1.52019,-0.44677 -1.518769,-0.61835 0.0059,-0.71644 1.328629,-3.08076 2.224923,-3.97705 0.53085,-0.53085 1.586278,-1.2915 2.345399,-1.69032 1.20772,-0.63452 1.677821,-0.72515 3.761467,-0.72515 2.080575,0 2.554555,0.0911 3.753758,0.72124 4.657571,2.44749 6.210251,8.17987 3.362021,12.41232 l -0.91572,1.36076 0.52507,0.55891 c 0.28879,0.3074 0.79778,1.15274 1.13109,1.87853 0.81728,1.77962 0.83648,4.99535 0.0403,6.75701 -1.11342,2.46373 -3.179066,4.1928 -5.835607,4.88474 -1.818938,0.47377 -2.434817,0.47175 -4.238169,-0.0139 z m 14.392137,0.23104 c -0.097,-0.097 -0.17639,-6.64545 -0.17639,-14.55207 v -14.37569 h 5.50066 c 7.48778,0 9.3245,0.50314 12.149567,3.32821 3.2941,3.2941 4.76232,9.30807 3.63103,14.87304 -1.184,5.82421 -5.13206,9.89844 -10.301047,10.63022 -2.07773,0.29415 -10.53062,0.36949 -10.80382,0.0963 z m 10.6948,-5.40956 c 1.09719,-0.23531 1.64987,-0.56676 2.75745,-1.65365 2.02008,-1.98236 2.617667,-3.68289 2.616197,-7.44476 -0.002,-4.47238 -1.212747,-7.12314 -3.855927,-8.44029 -1.23034,-0.6131 -1.69087,-0.68784 -4.23877,-0.68784 h -2.85847 v 6.83853 c 0,3.76118 0.0774,7.92836 0.17191,9.2604 l 0.17191,2.4219 h 1.93173 c 1.06246,0 2.54924,-0.13244 3.30397,-0.29429 z m -14.63086,-33.53391 -4.156552,-2.81659 -0.01064,-5.88698 -0.01064,-5.88698 h -3.836453 -3.836459 v -9.26042 -9.26041 h 10.067104 10.06709 l -0.0791,-6.59585 c -0.087,-7.25679 -0.0844,-7.24518 -1.90069,-8.60135 -0.72504,-0.54137 -0.93228,-0.54604 -27.301883,-0.6154 l -26.571291,-0.0699 v 3.97249 3.9725 h -7.9374991 -7.9375 V 173.39873 161.49248 H 67.419336 135.15266 v 11.90625 11.90625 h -7.9375 -7.9375 v -3.96875 -3.96875 H 98.949613 78.621526 l 0.34653,1.65364 c 0.22836,1.08978 0.3484,3.79635 0.35203,7.9375 l 0.005,6.28386 h 2.11667 2.116667 v 9.26041 9.26042 h -3.836447 -3.83645 l -0.0107,5.88698 -0.0107,5.88698 -4.114,2.77812 c -2.2627,1.52797 -4.19267,2.79545 -4.28882,2.8166 -0.0962,0.0212 -2.04528,-1.229 -4.33138,-2.77813 z M -0.3139751,202.50289 v -9.26041 H 10.930816 22.175607 v 2.64583 2.64583 H 32.75894 43.342273 v 3.96875 3.96875 H 32.75894 22.175607 v 2.64584 2.64583 H 10.930816 -0.3139751 Z M 112.6631,209.11748 v -2.64584 H 102.07977 91.496443 v -3.96875 -3.96875 h 10.583327 10.58333 v -2.64583 -2.64583 h 11.24479 11.24479 v 9.26041 9.26042 H 123.90789 112.6631 Z"
       id="path125" /></g></svg>
